HIERARCHY
ROOT mixamorig:Hips
{
	OFFSET -0.000008 104.274872 1.554316
	CHANNELS 6 Xposition Yposition Zposition Xrotation Yrotation Zrotation
	JOINT mixamorig:Spine
	{
		OFFSET -0.000005 10.181595 0.131519
		CHANNELS 6 Xposition Yposition Zposition Xrotation Yrotation Zrotation
		JOINT mixamorig:Spine1
		{
			OFFSET -0.000000 9.893959 -1.470707
			CHANNELS 6 Xposition Yposition Zposition Xrotation Yrotation Zrotation
			JOINT mixamorig:Spine2
			{
				OFFSET -0.000000 9.220757 -1.370641
				CHANNELS 6 Xposition Yposition Zposition Xrotation Yrotation Zrotation
				JOINT mixamorig:Neck
				{
					OFFSET 0.000001 16.740417 -2.049036
					CHANNELS 6 Xposition Yposition Zposition Xrotation Yrotation Zrotation
					JOINT mixamorig:Head
					{
						OFFSET 0.000000 9.617874 1.685006
						CHANNELS 6 Xposition Yposition Zposition Xrotation Yrotation Zrotation
						JOINT mixamorig:HeadTop_End
						{
							OFFSET 0.000002 22.037354 7.501101
							CHANNELS 6 Xposition Yposition Zposition Xrotation Yrotation Zrotation
							End Site
							{
								OFFSET 0.000168 2310.654297 -282.823242
							}
						}
					}
				}
				JOINT mixamorig:RightShoulder
				{
					OFFSET -4.569970 11.014908 -2.160885
					CHANNELS 6 Xposition Yposition Zposition Xrotation Yrotation Zrotation
					JOINT mixamorig:RightArm
					{
						OFFSET -10.592851 -0.524811 -2.232101
						CHANNELS 6 Xposition Yposition Zposition Xrotation Yrotation Zrotation
						JOINT mixamorig:RightForeArm
						{
							OFFSET -27.841511 0.000031 -0.000004
							CHANNELS 6 Xposition Yposition Zposition Xrotation Yrotation Zrotation
							JOINT mixamorig:RightHand
							{
								OFFSET -28.328831 -0.000015 0.000015
								CHANNELS 6 Xposition Yposition Zposition Xrotation Yrotation Zrotation
								JOINT mixamorig:RightHandThumb1
								{
									OFFSET -2.464806 -1.573990 2.681852
									CHANNELS 6 Xposition Yposition Zposition Xrotation Yrotation Zrotation
									JOINT mixamorig:RightHandThumb2
									{
										OFFSET -3.215179 -1.872803 1.924282
										CHANNELS 6 Xposition Yposition Zposition Xrotation Yrotation Zrotation
										JOINT mixamorig:RightHandThumb3
										{
											OFFSET -2.654831 -1.527969 1.512609
											CHANNELS 6 Xposition Yposition Zposition Xrotation Yrotation Zrotation
											JOINT mixamorig:RightHandThumb4
											{
												OFFSET -2.018814 -1.152008 1.108052
												CHANNELS 6 Xposition Yposition Zposition Xrotation Yrotation Zrotation
												End Site
												{
													OFFSET -188.809540 -114.533607 132.431396
												}
											}
										}
									}
								}
								JOINT mixamorig:RightHandIndex1
								{
									OFFSET -9.108284 -0.517868 2.259835
									CHANNELS 6 Xposition Yposition Zposition Xrotation Yrotation Zrotation
									JOINT mixamorig:RightHandIndex2
									{
										OFFSET -3.699989 0.000000 0.001215
										CHANNELS 6 Xposition Yposition Zposition Xrotation Yrotation Zrotation
										JOINT mixamorig:RightHandIndex3
										{
											OFFSET -2.850006 0.000031 -0.000522
											CHANNELS 6 Xposition Yposition Zposition Xrotation Yrotation Zrotation
											JOINT mixamorig:RightHandIndex4
											{
												OFFSET -2.772186 -0.000015 -0.000020
												CHANNELS 6 Xposition Yposition Zposition Xrotation Yrotation Zrotation
												End Site
												{
													OFFSET -277.218445 0.000000 -0.050231
												}
											}
										}
									}
								}
								JOINT mixamorig:RightHandMiddle1
								{
									OFFSET -9.532516 -0.000031 -0.000023
									CHANNELS 6 Xposition Yposition Zposition Xrotation Yrotation Zrotation
									JOINT mixamorig:RightHandMiddle2
									{
										OFFSET -3.700005 -0.000015 0.003713
										CHANNELS 6 Xposition Yposition Zposition Xrotation Yrotation Zrotation
										JOINT mixamorig:RightHandMiddle3
										{
											OFFSET -2.949974 0.000015 -0.002054
											CHANNELS 6 Xposition Yposition Zposition Xrotation Yrotation Zrotation
											JOINT mixamorig:RightHandMiddle4
											{
												OFFSET -2.946640 0.000000 -0.000156
												CHANNELS 6 Xposition Yposition Zposition Xrotation Yrotation Zrotation
												End Site
												{
													OFFSET -294.664337 0.000000 -0.113670
												}
											}
										}
									}
								}
								JOINT mixamorig:RightHandRing1
								{
									OFFSET -9.103600 -0.043076 -1.865134
									CHANNELS 6 Xposition Yposition Zposition Xrotation Yrotation Zrotation
									JOINT mixamorig:RightHandRing2
									{
										OFFSET -3.379288 0.000000 -0.001055
										CHANNELS 6 Xposition Yposition Zposition Xrotation Yrotation Zrotation
										JOINT mixamorig:RightHandRing3
										{
											OFFSET -2.889687 -0.000015 0.000379
											CHANNELS 6 Xposition Yposition Zposition Xrotation Yrotation Zrotation
											JOINT mixamorig:RightHandRing4
											{
												OFFSET -2.638809 -0.000015 0.000941
												CHANNELS 6 Xposition Yposition Zposition Xrotation Yrotation Zrotation
												End Site
												{
													OFFSET -263.880371 0.000000 0.516020
												}
											}
										}
									}
								}
								JOINT mixamorig:RightHandPinky1
								{
									OFFSET -8.076683 -0.486710 -3.806280
									CHANNELS 6 Xposition Yposition Zposition Xrotation Yrotation Zrotation
									JOINT mixamorig:RightHandPinky2
									{
										OFFSET -3.600014 -0.000015 -0.003747
										CHANNELS 6 Xposition Yposition Zposition Xrotation Yrotation Zrotation
										JOINT mixamorig:RightHandPinky3
										{
											OFFSET -2.099983 0.000000 -0.005739
											CHANNELS 6 Xposition Yposition Zposition Xrotation Yrotation Zrotation
											JOINT mixamorig:RightHandPinky4
											{
												OFFSET -2.115768 -0.000031 -0.003680
												CHANNELS 6 Xposition Yposition Zposition Xrotation Yrotation Zrotation
												End Site
												{
													OFFSET -211.577087 0.000000 -0.350686
												}
											}
										}
									}
								}
							}
						}
					}
				}
				JOINT mixamorig:LeftShoulder
				{
					OFFSET 4.570447 11.014725 -2.160855
					CHANNELS 6 Xposition Yposition Zposition Xrotation Yrotation Zrotation
					JOINT mixamorig:LeftArm
					{
						OFFSET 10.592371 -0.524597 -2.232119
						CHANNELS 6 Xposition Yposition Zposition Xrotation Yrotation Zrotation
						JOINT mixamorig:LeftForeArm
						{
							OFFSET 27.841532 -0.000031 0.000026
							CHANNELS 6 Xposition Yposition Zposition Xrotation Yrotation Zrotation
							JOINT mixamorig:LeftHand
							{
								OFFSET 28.328846 -0.000061 0.000022
								CHANNELS 6 Xposition Yposition Zposition Xrotation Yrotation Zrotation
								JOINT mixamorig:LeftHandThumb1
								{
									OFFSET 2.466141 -1.576172 2.681732
									CHANNELS 6 Xposition Yposition Zposition Xrotation Yrotation Zrotation
									JOINT mixamorig:LeftHandThumb2
									{
										OFFSET 3.217812 -1.872070 1.916482
										CHANNELS 6 Xposition Yposition Zposition Xrotation Yrotation Zrotation
										JOINT mixamorig:LeftHandThumb3
										{
											OFFSET 2.656029 -1.528778 1.514513
											CHANNELS 6 Xposition Yposition Zposition Xrotation Yrotation Zrotation
											JOINT mixamorig:LeftHandThumb4
											{
												OFFSET 2.020889 -1.154053 1.115139
												CHANNELS 6 Xposition Yposition Zposition Xrotation Yrotation Zrotation
												End Site
												{
													OFFSET 190.885437 -115.081749 130.048782
												}
											}
										}
									}
								}
								JOINT mixamorig:LeftHandIndex1
								{
									OFFSET 9.109314 -0.518021 2.259871
									CHANNELS 6 Xposition Yposition Zposition Xrotation Yrotation Zrotation
									JOINT mixamorig:LeftHandIndex2
									{
										OFFSET 3.699989 0.000000 -0.000322
										CHANNELS 6 Xposition Yposition Zposition Xrotation Yrotation Zrotation
										JOINT mixamorig:LeftHandIndex3
										{
											OFFSET 2.850006 0.000000 0.000352
											CHANNELS 6 Xposition Yposition Zposition Xrotation Yrotation Zrotation
											JOINT mixamorig:LeftHandIndex4
											{
												OFFSET 2.774864 -0.000031 -0.000027
												CHANNELS 6 Xposition Yposition Zposition Xrotation Yrotation Zrotation
												End Site
												{
													OFFSET 277.486267 0.000000 -0.009857
												}
											}
										}
									}
								}
								JOINT mixamorig:LeftHandMiddle1
								{
									OFFSET 9.533394 0.000061 0.000044
									CHANNELS 6 Xposition Yposition Zposition Xrotation Yrotation Zrotation
									JOINT mixamorig:LeftHandMiddle2
									{
										OFFSET 3.699989 -0.000015 -0.000231
										CHANNELS 6 Xposition Yposition Zposition Xrotation Yrotation Zrotation
										JOINT mixamorig:LeftHandMiddle3
										{
											OFFSET 2.949997 -0.000015 -0.000059
											CHANNELS 6 Xposition Yposition Zposition Xrotation Yrotation Zrotation
											JOINT mixamorig:LeftHandMiddle4
											{
												OFFSET 2.952896 0.000031 0.000063
												CHANNELS 6 Xposition Yposition Zposition Xrotation Yrotation Zrotation
												End Site
												{
													OFFSET 295.289337 0.000000 0.022810
												}
											}
										}
									}
								}
								JOINT mixamorig:LeftHandRing1
								{
									OFFSET 9.104523 -0.042999 -1.865074
									CHANNELS 6 Xposition Yposition Zposition Xrotation Yrotation Zrotation
									JOINT mixamorig:LeftHandRing2
									{
										OFFSET 3.150009 -0.000031 0.000043
										CHANNELS 6 Xposition Yposition Zposition Xrotation Yrotation Zrotation
										JOINT mixamorig:LeftHandRing3
										{
											OFFSET 2.949982 -0.000015 0.000040
											CHANNELS 6 Xposition Yposition Zposition Xrotation Yrotation Zrotation
											JOINT mixamorig:LeftHandRing4
											{
												OFFSET 2.644348 0.000000 0.000057
												CHANNELS 6 Xposition Yposition Zposition Xrotation Yrotation Zrotation
												End Site
												{
													OFFSET 264.434631 0.000000 0.012105
												}
											}
										}
									}
								}
								JOINT mixamorig:LeftHandPinky1
								{
									OFFSET 8.077789 -0.486847 -3.806259
									CHANNELS 6 Xposition Yposition Zposition Xrotation Yrotation Zrotation
									JOINT mixamorig:LeftHandPinky2
									{
										OFFSET 3.599953 0.000031 0.014727
										CHANNELS 6 Xposition Yposition Zposition Xrotation Yrotation Zrotation
										JOINT mixamorig:LeftHandPinky3
										{
											OFFSET 2.100021 0.000015 0.007705
											CHANNELS 6 Xposition Yposition Zposition Xrotation Yrotation Zrotation
											JOINT mixamorig:LeftHandPinky4
											{
												OFFSET 2.125504 0.000031 0.007517
												CHANNELS 6 Xposition Yposition Zposition Xrotation Yrotation Zrotation
												End Site
												{
													OFFSET 212.550781 0.000000 0.625752
												}
											}
										}
									}
								}
							}
						}
					}
				}
			}
		}
	}
	JOINT mixamorig:RightUpLeg
	{
		OFFSET -8.207787 -6.751648 -1.599560
		CHANNELS 6 Xposition Yposition Zposition Xrotation Yrotation Zrotation
		JOINT mixamorig:RightLeg
		{
			OFFSET -0.000002 -44.370117 0.345942
			CHANNELS 6 Xposition Yposition Zposition Xrotation Yrotation Zrotation
			JOINT mixamorig:RightFoot
			{
				OFFSET 0.000003 -44.423679 -3.043532
				CHANNELS 6 Xposition Yposition Zposition Xrotation Yrotation Zrotation
				JOINT mixamorig:RightToeBase
				{
					OFFSET -0.000002 -8.728671 10.710558
					CHANNELS 6 Xposition Yposition Zposition Xrotation Yrotation Zrotation
					JOINT mixamorig:RightToe_End
					{
						OFFSET -0.000001 -0.000679 9.278119
						CHANNELS 6 Xposition Yposition Zposition Xrotation Yrotation Zrotation
						End Site
						{
							OFFSET 0.000000 -0.067690 927.812134
						}
					}
				}
			}
		}
	}
	JOINT mixamorig:LeftUpLeg
	{
		OFFSET 8.207793 -6.751686 -1.599556
		CHANNELS 6 Xposition Yposition Zposition Xrotation Yrotation Zrotation
		JOINT mixamorig:LeftLeg
		{
			OFFSET -0.000004 -44.370014 0.346954
			CHANNELS 6 Xposition Yposition Zposition Xrotation Yrotation Zrotation
			JOINT mixamorig:LeftFoot
			{
				OFFSET -0.000001 -44.423672 -3.044401
				CHANNELS 6 Xposition Yposition Zposition Xrotation Yrotation Zrotation
				JOINT mixamorig:LeftToeBase
				{
					OFFSET -0.000002 -8.728669 10.710558
					CHANNELS 6 Xposition Yposition Zposition Xrotation Yrotation Zrotation
					JOINT mixamorig:LeftToe_End
					{
						OFFSET -0.000003 -0.000679 9.278133
						CHANNELS 6 Xposition Yposition Zposition Xrotation Yrotation Zrotation
						End Site
						{
							OFFSET 0.000000 -0.068021 927.813477
						}
					}
				}
			}
		}
	}
}
MOTION
Frames: 3
Frame Time: 0.033333
0.000006 104.270477 1.554256 0.000010 0.000003 -0.000113 -0.000005 10.181587 0.131522 0.000001 -0.000003 0.000084 -0.000000 9.893967 -1.470711 0.000001 0.000000 -0.000000 -0.000000 9.220802 -1.370642 0.000000 -0.000000 -0.000000 0.000001 16.740433 -2.049030 0.000000 -0.000000 -0.000000 0.000000 9.617859 1.685014 0.000000 0.000000 0.000000 0.000002 22.037384 7.501101 0.000000 -0.000000 0.000000 -4.569968 11.014880 -2.160881 0.000008 0.000001 -0.000038 -10.592856 -0.524806 -2.231834 70.043890 44.703732 -32.148847 -27.841520 0.000009 0.000549 -51.527456 106.168242 65.436798 -28.328829 -0.000003 0.000030 -0.000319 -0.000046 0.000010 -2.464404 -1.573989 2.682351 -20.967853 -142.024440 35.764701 -3.215110 -1.872418 1.924610 136.147800 31.040508 70.727736 -2.654958 -1.527861 1.513055 150.416079 27.970057 -22.814217 -2.018850 -1.151995 1.108054 -0.000002 -0.000003 0.000002 -9.108385 -0.517576 2.260204 116.716991 15.212877 -24.530708 -3.700058 0.000301 0.001585 112.811858 12.029397 -17.991459 -2.850072 0.000356 -0.000189 111.625652 9.676064 -14.204142 -2.772170 -0.000014 -0.000027 -0.000000 0.000006 -0.000004 -9.532590 0.000254 0.000337 114.407369 15.454734 -24.002261 -3.700075 0.000309 0.004063 115.023650 11.072999 -17.163123 -2.950056 0.000329 -0.001716 116.594512 10.024535 -16.151500 -2.946630 -0.000015 -0.000149 -0.000000 0.000003 -0.000001 -9.103695 -0.042779 -1.864772 113.537797 17.857273 -26.902052 -3.379342 0.000290 -0.000678 118.359269 11.145295 -18.605761 -2.889776 0.000322 0.000774 122.511054 8.897586 -16.232974 -2.638813 -0.000004 0.000937 -0.000001 0.000001 -0.000002 -8.076779 -0.486428 -3.805981 93.693919 25.499669 -26.967959 -3.600073 0.000261 -0.003438 102.350173 15.474027 -18.690109 -2.100035 0.000293 -0.005387 108.845198 8.804852 -11.965321 -2.115749 -0.000038 -0.003678 -0.000002 -0.000001 -0.000005 4.570446 11.014691 -2.160851 -0.000018 0.000010 -0.000021 10.592541 -0.524563 -2.232373 79.539459 -78.356060 68.294665 27.841717 -0.000087 -0.000096 75.224650 -105.758642 91.019292 28.328833 -0.000043 0.000019 0.000021 -0.000089 -0.000000 2.466143 -1.576175 2.681809 155.035527 172.551055 -174.408402 3.217830 -1.871979 1.916550 309.448113 16.626000 14.205028 2.656059 -1.528756 1.514600 302.951757 14.633491 16.833782 2.020895 -1.154053 1.115141 -0.000002 0.000003 0.000004 9.109281 -0.517814 2.260113 256.471882 -8.824306 348.824755 3.699955 0.000199 -0.000077 75.348454 -171.218007 168.626784 2.849980 0.000262 0.000582 71.374111 -173.394556 170.814043 2.774889 -0.000015 -0.000028 -0.000002 -0.000001 -0.000001 9.533372 0.000267 0.000280 253.394226 -7.460669 -9.990838 3.699979 0.000224 0.000005 251.883989 -6.751445 -9.300015 2.949998 0.000227 0.000184 249.363568 -5.623791 351.876620 2.952867 -0.000015 0.000061 -0.000000 -0.000000 -0.000000 9.104508 -0.042787 -1.864819 254.430366 -6.384056 -8.401524 3.149984 0.000287 0.000280 252.993157 -3.309750 -4.474341 2.949981 0.000229 0.000257 253.769586 -2.258929 -3.011854 2.644324 0.000047 0.000057 -0.000001 0.000002 0.000001 8.077750 -0.486668 -3.806015 256.009915 -7.282274 -9.825756 3.599964 0.000224 0.014984 257.907943 -0.016245 -0.539775 2.100012 0.000199 0.007947 258.301417 3.097028 3.281560 2.125500 -0.000015 0.007509 -0.000001 -0.000001 -0.000002 -8.207786 -6.751667 -1.599560 -0.077001 -0.000003 0.000080 -0.000002 -44.370110 0.345938 0.153719 -0.000000 -0.000000 0.000000 -44.423679 -3.043532 -0.076700 0.000000 -0.000002 -0.000006 -8.728667 10.710559 -0.000009 -0.000000 -0.000000 -0.000001 -0.000679 9.278123 0.000000 -0.000000 -0.000000 8.207792 -6.751710 -1.599556 -0.074518 -0.000003 0.000081 -0.000002 -44.370014 0.346960 0.148822 0.000002 0.000000 -0.000001 -44.423664 -3.044403 -0.074314 0.000000 -0.000002 -0.000004 -8.728671 10.710558 0.000007 -0.000000 -0.000000 0.000000 -0.000680 9.278137 -0.000000 0.000000 -0.000001 
0.000006 104.270477 1.554256 0.000010 0.000003 -0.000113 -0.000005 10.181587 0.131522 0.000001 -0.000003 0.000084 -0.000000 9.893967 -1.470711 0.000001 0.000000 -0.000000 -0.000000 9.220802 -1.370642 0.000000 -0.000000 -0.000000 0.000001 16.740433 -2.049030 0.000000 -0.000000 -0.000000 0.000000 9.617859 1.685014 0.000000 0.000000 0.000000 0.000002 22.037384 7.501101 0.000000 -0.000000 0.000000 -4.569968 11.014880 -2.160881 0.000008 0.000001 -0.000038 -10.592850 -0.524808 -2.231821 69.795019 47.151569 -33.860403 -27.841516 0.000014 0.000547 -51.550453 106.039575 65.341736 -28.328842 0.000023 0.000026 -0.000322 -0.000046 0.000009 -2.464426 -1.573991 2.682354 -21.176173 -142.019878 35.428772 -3.215126 -1.872393 1.924600 136.108158 31.017159 70.917800 -2.654970 -1.527883 1.513057 150.471827 28.004228 -22.486108 -2.018842 -1.151980 1.108063 -0.000003 -0.000001 0.000002 -9.108380 -0.517580 2.260209 116.769515 15.032963 -24.270826 -3.700058 0.000305 0.001577 113.040184 11.665140 -17.525017 -2.850076 0.000360 -0.000177 111.862776 9.394246 -13.853572 -2.772170 0.000009 -0.000025 0.000004 0.000004 -0.000004 -9.532607 0.000253 0.000330 114.639370 15.220129 -23.749266 -3.700075 0.000298 0.004063 114.757437 10.829454 -16.701599 -2.950057 0.000329 -0.001705 116.537931 9.925796 -15.976183 -2.946623 -0.000010 -0.000159 -0.000001 -0.000003 0.000003 -9.103710 -0.042775 -1.864773 114.256245 17.535442 -26.777721 -3.379335 0.000295 -0.000687 118.315665 11.022929 -18.388377 -2.889769 0.000299 0.000769 122.410637 8.988280 -16.362541 -2.638805 0.000001 0.000941 0.000001 -0.000001 0.000001 -8.076806 -0.486427 -3.805977 93.976354 25.603927 -27.207446 -3.600074 0.000242 -0.003441 102.110372 15.437956 -18.567664 -2.100048 0.000302 -0.005389 108.565748 8.877274 -12.004275 -2.115760 -0.000071 -0.003676 -0.000001 -0.000000 -0.000003 4.570446 11.014691 -2.160851 -0.000018 0.000010 -0.000021 10.592541 -0.524576 -2.232373 80.145945 -78.049760 68.576670 27.841707 -0.000085 -0.000092 76.266582 -106.369002 92.728520 28.328840 -0.000043 0.000017 0.000022 -0.000089 -0.000000 2.466160 -1.576192 2.681822 156.924074 185.844202 -172.194041 3.217830 -1.871979 1.916582 312.743106 7.301935 12.877184 2.656069 -1.528750 1.514613 306.286610 9.061199 15.190517 2.020883 -1.154075 1.115149 0.000001 0.000002 0.000003 9.109285 -0.517809 2.260110 254.262425 -7.853036 349.651399 3.699971 0.000224 -0.000090 71.989716 -172.146080 169.186695 2.849979 0.000248 0.000567 68.488486 -173.581813 170.584371 2.774878 -0.000015 -0.000025 -0.000000 -0.000000 0.000000 9.533380 0.000271 0.000273 252.907589 -6.876774 -9.291465 3.699964 0.000238 0.000023 250.882684 -6.414365 -9.000232 2.949979 0.000232 0.000179 249.316330 -6.263156 350.947469 2.952881 -0.000031 0.000064 0.000000 0.000000 0.000000 9.104508 -0.042818 -1.864825 255.469347 -5.881233 -7.597286 3.149985 0.000260 0.000288 254.775536 -4.108122 -5.375785 2.949983 0.000222 0.000283 254.535305 -3.754963 -4.935391 2.644325 -0.000000 0.000060 -0.000000 -0.000001 -0.000000 8.077764 -0.486700 -3.806012 259.799113 -6.724527 -8.527342 3.599949 0.000241 0.014950 257.924991 -0.840759 -1.551442 2.100014 0.000228 0.007942 256.939750 2.157883 2.188745 2.125507 0.000017 0.007509 0.000001 -0.000001 -0.000001 -8.207786 -6.751667 -1.599560 -0.077001 -0.000003 0.000080 -0.000002 -44.370110 0.345938 0.153719 -0.000000 -0.000000 0.000000 -44.423679 -3.043532 -0.076700 0.000000 -0.000002 -0.000006 -8.728667 10.710559 -0.000009 -0.000000 -0.000000 -0.000001 -0.000679 9.278123 0.000000 -0.000000 -0.000000 8.207792 -6.751710 -1.599556 -0.074518 -0.000003 0.000081 -0.000002 -44.370014 0.346960 0.148822 0.000002 0.000000 -0.000001 -44.423664 -3.044403 -0.074314 0.000000 -0.000002 -0.000004 -8.728671 10.710558 0.000007 -0.000000 -0.000000 0.000000 -0.000680 9.278137 -0.000000 0.000000 -0.000001 
0.000006 104.270477 1.554256 0.000010 0.000003 -0.000113 -0.000005 10.181587 0.131522 0.000001 -0.000003 0.000084 -0.000000 9.893967 -1.470711 0.000001 0.000000 -0.000000 -0.000000 9.220802 -1.370642 0.000000 -0.000000 -0.000000 0.000001 16.740433 -2.049030 0.000000 -0.000000 -0.000000 0.000000 9.617859 1.685014 0.000000 0.000000 0.000000 0.000002 22.037384 7.501101 0.000000 -0.000000 0.000000 -4.569968 11.014880 -2.160881 0.000008 0.000001 -0.000038 -10.592846 -0.524815 -2.231813 69.750390 48.471817 -34.838954 -27.841537 0.000002 0.000560 -51.679168 105.924671 65.382361 -28.328838 0.000023 0.000021 -0.000320 -0.000044 0.000008 -2.464434 -1.573972 2.682356 -22.108943 -142.379719 34.142835 -3.215120 -1.872438 1.924613 135.783245 30.787061 71.518528 -2.654949 -1.527849 1.513060 150.387583 28.039994 -22.239844 -2.018827 -1.152001 1.108066 -0.000002 -0.000002 0.000005 -9.108388 -0.517582 2.260215 116.867037 15.088439 -24.403643 -3.700068 0.000306 0.001583 112.774449 11.871098 -17.744060 -2.850069 0.000361 -0.000184 111.736369 9.386504 -13.809682 -2.772173 -0.000013 -0.000020 0.000002 -0.000001 0.000001 -9.532610 0.000254 0.000333 114.359599 15.253151 -23.675678 -3.700076 0.000298 0.004070 115.256819 11.055261 -17.211684 -2.950065 0.000334 -0.001704 117.123401 9.903881 -16.122349 -2.946628 0.000010 -0.000161 0.000004 0.000001 0.000001 -9.103731 -0.042786 -1.864768 113.590410 17.815884 -26.866776 -3.379324 0.000300 -0.000682 118.379090 11.294722 -18.859283 -2.889779 0.000309 0.000783 122.649898 8.925064 -16.328694 -2.638800 -0.000025 0.000942 -0.000002 0.000002 -0.000001 -8.076797 -0.486423 -3.805979 93.856437 25.445646 -26.984571 -3.600091 0.000236 -0.003434 101.957212 15.261141 -18.302511 -2.100042 0.000303 -0.005389 108.342209 8.570789 -11.534345 -2.115771 -0.000026 -0.003682 -0.000001 -0.000002 -0.000005 4.570446 11.014691 -2.160851 -0.000018 0.000010 -0.000021 10.592539 -0.524572 -2.232375 79.933328 -78.439395 68.746305 27.841713 -0.000071 -0.000094 77.287313 -105.987378 93.378774 28.328840 -0.000044 0.000021 0.000023 -0.000089 -0.000000 2.466158 -1.576146 2.681820 159.143012 185.661481 -172.721714 3.217834 -1.871986 1.916570 314.074720 9.451112 12.443724 2.656043 -1.528756 1.514640 305.967258 12.372250 15.532668 2.020902 -1.154068 1.115142 -0.000002 0.000002 0.000004 9.109290 -0.517814 2.260112 255.767143 -6.330428 351.880090 3.699975 0.000216 -0.000074 73.315613 -174.356438 172.404985 2.849995 0.000231 0.000592 69.283103 -175.647221 173.704825 2.774893 -0.000031 -0.000026 -0.000001 0.000001 0.000001 9.533374 0.000275 0.000300 256.801070 -6.643963 -8.369008 3.699973 0.000218 0.000026 254.876350 -5.517802 -7.200492 2.949987 0.000201 0.000172 253.727731 -4.185048 354.417614 2.952872 -0.000030 0.000061 0.000001 0.000001 0.000000 9.104511 -0.042810 -1.864825 259.466018 -5.700480 -6.857408 3.149994 0.000236 0.000298 259.077927 -3.803365 -4.608399 2.949986 0.000229 0.000274 259.823620 -2.566499 -3.069677 2.644318 0.000015 0.000053 -0.000002 0.000001 -0.000000 8.077765 -0.486689 -3.805998 264.108389 -5.767847 -6.856254 3.599952 0.000212 0.014984 262.336173 0.351765 -0.081467 2.100004 0.000187 0.007920 261.623074 3.474655 3.528411 2.125501 -0.000018 0.007511 -0.000003 0.000001 0.000001 -8.207786 -6.751667 -1.599560 -0.077001 -0.000003 0.000080 -0.000002 -44.370110 0.345938 0.153719 -0.000000 -0.000000 0.000000 -44.423679 -3.043532 -0.076700 0.000000 -0.000002 -0.000006 -8.728667 10.710559 -0.000009 -0.000000 -0.000000 -0.000001 -0.000679 9.278123 0.000000 -0.000000 -0.000000 8.207792 -6.751710 -1.599556 -0.074518 -0.000003 0.000081 -0.000002 -44.370014 0.346960 0.148822 0.000002 0.000000 -0.000001 -44.423664 -3.044403 -0.074314 0.000000 -0.000002 -0.000004 -8.728671 10.710558 0.000007 -0.000000 -0.000000 0.000000 -0.000680 9.278137 -0.000000 0.000000 -0.000001 
